<svg id="Layer_1" data-name="Layer 1" xmlns="http://www.w3.org/2000/svg" viewBox="0 0 281.71 55.89"><defs><style>.cls-1,.cls-2{fill:#132a33}.cls-1,.cls-10,.cls-11,.cls-12,.cls-13,.cls-14,.cls-3,.cls-4,.cls-5,.cls-6,.cls-7,.cls-8,.cls-9{fill-rule:evenodd}.cls-3{fill:#117899}.cls-4{fill:#152a33}.cls-5{fill:#0f5b78}.cls-6{fill:#2ebaca}.cls-7{fill:#f7c532}.cls-8{fill:#f58e00}.cls-9{fill:#ed6114}.cls-10{fill:#1395ba}.cls-11{fill:#59a893}.cls-12{fill:#ecaa38}.cls-13{fill:#f16c20}.cls-14{fill:#c02e1d}</style></defs><title>chsi_connections_logo</title><path class="cls-1" d="M218.61 324.71a15.78 15.78 0 0 1-3 .35 4.86 4.86 0 0 1-1.95-.3 2 2 0 0 1-1-1.06 4.86 4.86 0 0 1-.47-1.63 18.63 18.63 0 0 1-.12-2.42 10 10 0 0 1 .64-4.22 2.71 2.71 0 0 1 2.65-1.24 19 19 0 0 1 3.28.34l.05-1.24a17.36 17.36 0 0 0-3.43-.4 5.89 5.89 0 0 0-2.37.4 2.92 2.92 0 0 0-1.39 1.34 6.09 6.09 0 0 0-.69 2.08 18.26 18.26 0 0 0-.18 2.94 17.81 17.81 0 0 0 .18 2.91 5.9 5.9 0 0 0 .69 2 2.85 2.85 0 0 0 1.41 1.33 5.74 5.74 0 0 0 2.42.42 17.32 17.32 0 0 0 3.36-.39z" transform="translate(-141.02 -307.73)"/><path class="cls-1" d="M89.23 18.44V5.34h-1.38v5.88h-6.4V5.34h-1.39v13.1h1.39v-5.91h6.4v5.91h1.38z"/><path class="cls-1" d="M241 313.88l.13-1.23-.62-.1a22.08 22.08 0 0 0-3.17-.29c-2.7 0-4.06 1.18-4.06 3.53a3.14 3.14 0 0 0 .89 2.52 7.39 7.39 0 0 0 3 1.23 5.45 5.45 0 0 1 2.2.77 1.82 1.82 0 0 1 .6 1.53 2.36 2.36 0 0 1-2.69 2.64 28.69 28.69 0 0 1-3.76-.35l-.15 1.21.66.1a21 21 0 0 0 3.33.32c2.67 0 4-1.34 4-4a3 3 0 0 0-.81-2.33 6.39 6.39 0 0 0-2.72-1.16 8.12 8.12 0 0 1-2.54-.89 1.87 1.87 0 0 1-.62-1.63c0-1.43.91-2.15 2.72-2.15.72-.04 1.91.07 3.61.28z" transform="translate(-141.02 -307.73)"/><path class="cls-2" d="M102.93 5.34h1.39v13.1h-1.39z"/><path class="cls-1" d="M226 351.22a38 38 0 0 1-6 .5c-1.88 0-3.12-.54-3.75-1.63s-.94-3-.94-5.81a26.75 26.75 0 0 1 .45-5.93 3.87 3.87 0 0 1 1.41-2.35 6.11 6.11 0 0 1 3.21-.62 37.59 37.59 0 0 1 5.59.54l.13-3.91a28.52 28.52 0 0 0-6.77-1c-3.39 0-5.71.92-7 2.75s-1.9 5.07-1.9 9.74a33.82 33.82 0 0 0 .37 5.54 10.67 10.67 0 0 0 1.38 3.85 5.75 5.75 0 0 0 2.82 2.41 12 12 0 0 0 4.62.74 30.07 30.07 0 0 0 6.52-.81zM248.07 343.64c0-4.25-.72-7.42-2.17-9.49S242 331 238.46 331s-6 1-7.44 3.11-2.17 5.24-2.17 9.49.71 7.4 2.15 9.4 3.91 3 7.44 3 6-1 7.44-3 2.19-5.09 2.19-9.36zm-14.38 0a15 15 0 0 1 1-6.38 4.55 4.55 0 0 1 7.51 0 15 15 0 0 1 1 6.38c0 2.91-.34 5-1 6.25s-1.93 1.85-3.76 1.85-3.11-.62-3.78-1.85-.97-3.31-.97-6.22z" transform="translate(-141.02 -307.73)"/><path class="cls-1" d="M115.36 47.89V28h.34l5.8 19.89h7.72V23.73h-4.7v19.89h-.34l-5.59-19.89h-7.93v24.16h4.7zM138.87 47.89V28h.33l5.8 19.89h7.74V23.73h-4.7v19.89h-.34l-5.59-19.89h-7.95v24.16h4.71zM172.68 47.89v-4.27h-10.3v-5.79h8.25v-4.18h-8.25V28h10.3v-4.27h-15v24.16h15z"/><path class="cls-1" d="M331.69 351.22a38.13 38.13 0 0 1-6 .5c-1.88 0-3.12-.54-3.75-1.63s-.94-3-.94-5.81a26.75 26.75 0 0 1 .45-5.93 3.87 3.87 0 0 1 1.41-2.35 6 6 0 0 1 3.19-.62 37.58 37.58 0 0 1 5.61.54l.13-3.91a28.53 28.53 0 0 0-6.79-1c-3.38 0-5.71.92-7 2.75s-1.88 5.07-1.88 9.74a33.82 33.82 0 0 0 .37 5.54 11 11 0 0 0 1.36 3.85 5.83 5.83 0 0 0 2.72 2.37 12.16 12.16 0 0 0 4.64.74 30.32 30.32 0 0 0 6.52-.81z" transform="translate(-141.02 -307.73)"/><path class="cls-1" d="M198.61 28.07v19.82h4.71V28.07h6.13v-4.34H192.4v4.34h6.21z"/><path class="cls-2" d="M212.32 23.73h4.7v24.15h-4.7z"/><path class="cls-1" d="M380.86 343.64c0-4.25-.74-7.42-2.17-9.49s-3.93-3.11-7.44-3.11-6 1-7.46 3.11-2.17 5.24-2.17 9.49.72 7.41 2.17 9.41 3.93 3 7.46 3 6-1 7.44-3 2.17-5.14 2.17-9.41zm-14.4 0c0-2.92.34-5.06 1-6.38a4.55 4.55 0 0 1 7.51 0 15 15 0 0 1 1 6.38c0 2.91-.34 5-1 6.25a3.93 3.93 0 0 1-3.76 1.85c-1.85 0-3.11-.62-3.78-1.85s-.97-3.31-.97-6.22z" transform="translate(-141.02 -307.73)"/><path class="cls-1" d="M248.13 47.89V28h.36l5.79 19.89h7.73V23.73h-4.71v19.89h-.33l-5.6-19.89h-7.93v24.16h4.69z"/><path class="cls-1" d="M421.87 335.86l.37-3.86-1.23-.25a37.15 37.15 0 0 0-6.4-.71 8.66 8.66 0 0 0-5.8 1.78 6.64 6.64 0 0 0-2.12 5.39 6.06 6.06 0 0 0 1.61 4.48 13.36 13.36 0 0 0 5.58 2.81 11 11 0 0 1 3.33 1.38 2.09 2.09 0 0 1 .84 1.76c0 2.1-1.21 3.12-3.61 3.12a52.55 52.55 0 0 1-7-.64l-.44 3.83 1.23.25a31.57 31.57 0 0 0 6.5.84 8.4 8.4 0 0 0 5.8-1.95 7.31 7.31 0 0 0 2.22-5.74 6.29 6.29 0 0 0-1.38-4.43 11.61 11.61 0 0 0-4.74-2.57 23.17 23.17 0 0 1-4.32-1.75 1.91 1.91 0 0 1-.92-1.73c0-1.71 1.24-2.55 3.71-2.55 1.32-.01 3.57.17 6.77.54z" transform="translate(-141.02 -307.73)"/><path class="cls-3" d="M34.13 48.9l-11.37 6.98V41.91l11.37 6.99z"/><path class="cls-4" d="M45.52 41.91L34.13 48.9V34.92l11.39 6.99z"/><path class="cls-5" d="M22.76 41.91l11.37 6.99V34.92l-11.37 6.99z"/><path class="cls-6" d="M22.76 41.91L11.39 48.9V34.92l11.37 6.99z"/><path class="cls-7" d="M11.39 34.92L0 41.91V27.95l11.39 6.97z"/><path class="cls-6" d="M35.81 28l11.37 6.99V21.03L35.81 28z"/><path class="cls-8" d="M11.39 20.96L0 27.95V13.97l11.39 6.99z"/><path class="cls-9" d="M22.76 13.97l-11.37 6.99V6.99l11.37 6.98z"/><path class="cls-3" d="M45.52 13.97l-11.39 6.99V6.99l11.39 6.98z"/><path class="cls-4" d="M34.13 6.99l-11.37 6.98V0l11.37 6.99z"/><path class="cls-10" d="M11.39 48.9l11.37 6.98V41.91L11.39 48.9z"/><path class="cls-11" d="M0 41.91l11.39 6.99V34.92L0 41.91z"/><path class="cls-12" d="M0 27.95l11.39 6.97V20.96L0 27.95z"/><path class="cls-11" d="M50.21 15.97l7.93 5.33V10.65l-7.93 5.32z"/><path class="cls-13" d="M0 13.97l11.39 6.99V6.99L0 13.97z"/><path class="cls-5" d="M22.76 13.97l11.37 6.99V6.99l-11.37 6.98z"/><path class="cls-14" d="M11.39 6.99l11.37 6.98V0L11.39 6.99z"/><path class="cls-7" d="M59.45 28.88l-6.82 4.61v-9.22l6.82 4.61z"/></svg>